<svg width="1800" height="980" viewBox="0 0 1800 980" preserveAspectRatio="xMidYMid meet" xmlns="http://www.w3.org/2000/svg" role="img" aria-label="Swimlane chart thiết lập tiêu chuẩn ứng viên">
  <defs>
    <style>
      .outer-border { fill: none; stroke: #b5d4f4; stroke-width: 1.2; }
      .divider { stroke: #b5d4f4; stroke-width: 1; }
      .lane-head { fill: #185fa5; }
      .lane-title {
        fill: #e8f2fb;
        font-family: "SF Pro Text", "Inter", "Segoe UI", sans-serif;
        font-size: 14px;
        font-weight: 700;
        text-anchor: middle;
        dominant-baseline: middle;
      }
      .lane-left { fill: #378add; opacity: 0.08; }
      .lane-right { fill: #378add; opacity: 0.11; }
      .task { fill: #378add; stroke: #185fa5; stroke-width: 1; }
      .result-ok { fill: #1d9e75; stroke: #0f6e56; stroke-width: 1; }
      .result-error { fill: #e54848; stroke: #b52f2f; stroke-width: 1; }
      .start-end { fill: #5dcaa5; stroke: #0f6e56; stroke-width: 1.2; }
      .decision { fill: #f5a623; stroke: #d97706; stroke-width: 1; }
      .text-light {
        fill: #eef6ff;
        font-family: "SF Pro Text", "Inter", "Segoe UI", sans-serif;
        font-size: 12px;
        font-weight: 600;
        text-anchor: middle;
      }
      .text-dark {
        fill: #07342c;
        font-family: "SF Pro Text", "Inter", "Segoe UI", sans-serif;
        font-size: 12px;
        font-weight: 700;
        text-anchor: middle;
      }
      .decision-text {
        fill: #3b2400;
        font-family: "SF Pro Text", "Inter", "Segoe UI", sans-serif;
        font-size: 12px;
        font-weight: 700;
        text-anchor: middle;
      }
      .subtext {
        fill: #d8eeff;
        font-family: "SF Pro Text", "Inter", "Segoe UI", sans-serif;
        font-size: 11px;
        font-weight: 500;
        text-anchor: middle;
      }
      .meta-text {
        fill: #d6e6f6;
        font-family: "SF Pro Text", "Inter", "Segoe UI", sans-serif;
        font-size: 10px;
        font-weight: 600;
        text-anchor: middle;
      }
      .line {
        fill: none;
        stroke: #378add;
        stroke-width: 1.8;
        stroke-linecap: round;
        stroke-linejoin: round;
        marker-end: url(#arrow);
      }
      .line-label {
        fill: #61b3ff;
        font-family: "SF Pro Text", "Inter", "Segoe UI", sans-serif;
        font-size: 11px;
        font-weight: 700;
        paint-order: stroke;
        stroke: rgba(10, 18, 34, 0.92);
        stroke-width: 4px;
        stroke-linejoin: round;
      }
    </style>
    <marker id="arrow" viewBox="0 0 10 10" refX="8" refY="5" markerWidth="7" markerHeight="7" orient="auto-start-reverse">
      <path d="M1.5 1.5L8 5L1.5 8.5" fill="none" stroke="#378add" stroke-width="1.5" stroke-linecap="round" stroke-linejoin="round"/>
    </marker>
  </defs>

  <rect class="lane-left" x="0" y="54" width="900" height="926"/>
  <rect class="lane-right" x="900" y="54" width="900" height="926"/>

  <rect class="outer-border" x="0.6" y="0.6" width="1798.8" height="978.8"/>
  <line class="divider" x1="900" y1="0" x2="900" y2="980"/>

  <rect class="lane-head" x="0" y="0" width="900" height="54"/>
  <rect class="lane-head" x="900" y="0" width="900" height="54"/>

  <text class="lane-title" x="450" y="27">Người phụ trách</text>
  <text class="lane-title" x="1350" y="27">Hệ thống PLS Buddy+</text>

  <ellipse class="start-end" cx="450" cy="102" rx="96" ry="28"/>
  <text class="text-dark" x="450" y="107">Bắt đầu</text>

  <rect class="task" x="90" y="170" width="320" height="76" rx="8"/>
  <text class="text-light" x="250" y="200">
    <tspan x="250" dy="0">Chọn vị trí tuyển dụng</tspan>
    <tspan x="250" dy="16">cần thiết lập tiêu chuẩn</tspan>
  </text>

  <rect class="task" x="990" y="170" width="320" height="88" rx="8"/>
  <text class="text-light" x="1150" y="202">
    <tspan x="1150" dy="0">Mở submenu Phỏng vấn</tspan>
    <tspan x="1150" dy="16">và tab Tiêu chuẩn ứng viên</tspan>
  </text>

  <rect class="task" x="990" y="312" width="320" height="88" rx="8"/>
  <text class="text-light" x="1150" y="344">
    <tspan x="1150" dy="0">Tải cây danh mục</tspan>
    <tspan x="1150" dy="16">tiêu chuẩn ứng viên</tspan>
  </text>

  <polygon class="decision" points="1150,446 1260,516 1150,586 1040,516"/>
  <text class="decision-text" x="1150" y="512">
    <tspan x="1150" dy="0">Có danh mục</tspan>
    <tspan x="1150" dy="16">tiêu chuẩn?</tspan>
  </text>

  <rect class="result-error" x="1390" y="446" width="350" height="112" rx="8"/>
  <text class="text-light" x="1565" y="478">
    <tspan x="1565" dy="0">Không có dữ liệu!</tspan>
    <tspan class="subtext" x="1565" dy="18">Hiển thị ô Nhập Danh Mục Mới</tspan>
    <tspan class="meta-text" x="1565" dy="16">Kèm biểu tượng thùng rỗng</tspan>
  </text>

  <rect class="task" x="90" y="650" width="320" height="88" rx="8"/>
  <text class="text-light" x="250" y="682">
    <tspan x="250" dy="0">Thêm / sửa / xóa</tspan>
    <tspan x="250" dy="16">danh mục và action check</tspan>
  </text>

  <rect class="task" x="990" y="650" width="320" height="88" rx="8"/>
  <text class="text-light" x="1150" y="682">
    <tspan x="1150" dy="0">Xác nhận xóa nếu có</tspan>
    <tspan x="1150" dy="16">và cập nhật ngay trên màn hình</tspan>
  </text>

  <rect class="result-ok" x="1390" y="650" width="350" height="132" rx="8"/>
  <text class="text-light" x="1565" y="682">
    <tspan x="1565" dy="0">Danh mục tiêu chuẩn hiển thị</tspan>
    <tspan class="subtext" x="1565" dy="18">Cho phép mở rộng / thu gọn</tspan>
    <tspan class="meta-text" x="1565" dy="18">Sau thêm / sửa / xóa dữ liệu cập nhật ngay</tspan>
  </text>

  <ellipse class="start-end" cx="1565" cy="890" rx="96" ry="28"/>
  <text class="text-dark" x="1565" y="895">Kết thúc</text>

  <line class="line" x1="450" y1="130" x2="450" y2="208"/>
  <line class="line" x1="410" y1="208" x2="990" y2="208"/>
  <line class="line" x1="1150" y1="258" x2="1150" y2="312"/>
  <line class="line" x1="1150" y1="400" x2="1150" y2="446"/>
  <line class="line" x1="1260" y1="516" x2="1390" y2="516"/>
  <path class="line" d="M1150 586 V612 H250 V650"/>
  <line class="line" x1="410" y1="694" x2="990" y2="694"/>
  <line class="line" x1="1310" y1="694" x2="1390" y2="694"/>
  <line class="line" x1="1565" y1="782" x2="1565" y2="862"/>

  <text class="line-label" x="700" y="194" text-anchor="middle">Chọn vị trí</text>
  <text class="line-label" x="1288" y="502">Không</text>
  <text class="line-label" x="1188" y="624">Có</text>
</svg>
