<svg width="1800" height="1120" viewBox="0 0 1800 1120" preserveAspectRatio="xMidYMid meet" xmlns="http://www.w3.org/2000/svg" role="img" aria-label="Swimlane chart thiết lập bài kiểm tra đầu vào">
  <defs>
    <style>
      .outer-border { fill: none; stroke: #b5d4f4; stroke-width: 1.2; }
      .divider { stroke: #b5d4f4; stroke-width: 1; }
      .lane-head { fill: #185fa5; }
      .lane-title {
        fill: #e8f2fb;
        font-family: "SF Pro Text", "Inter", "Segoe UI", sans-serif;
        font-size: 14px;
        font-weight: 700;
        text-anchor: middle;
        dominant-baseline: middle;
      }
      .lane-master { fill: #378add; opacity: 0.06; }
      .lane-handler { fill: #378add; opacity: 0.08; }
      .lane-system { fill: #378add; opacity: 0.11; }
      .lane-peer { fill: #378add; opacity: 0.08; }
      .task { fill: #378add; stroke: #185fa5; stroke-width: 1; }
      .result-ok { fill: #1d9e75; stroke: #0f6e56; stroke-width: 1; }
      .result-error { fill: #e54848; stroke: #b52f2f; stroke-width: 1; }
      .start-end { fill: #5dcaa5; stroke: #0f6e56; stroke-width: 1.2; }
      .text-light {
        fill: #eef6ff;
        font-family: "SF Pro Text", "Inter", "Segoe UI", sans-serif;
        font-size: 12px;
        font-weight: 600;
        text-anchor: middle;
      }
      .text-dark {
        fill: #07342c;
        font-family: "SF Pro Text", "Inter", "Segoe UI", sans-serif;
        font-size: 12px;
        font-weight: 700;
        text-anchor: middle;
      }
      .subtext {
        fill: #d8eeff;
        font-family: "SF Pro Text", "Inter", "Segoe UI", sans-serif;
        font-size: 11px;
        font-weight: 500;
        text-anchor: middle;
      }
      .meta-text {
        fill: #d6e6f6;
        font-family: "SF Pro Text", "Inter", "Segoe UI", sans-serif;
        font-size: 10px;
        font-weight: 600;
        text-anchor: middle;
      }
      .line {
        fill: none;
        stroke: #378add;
        stroke-width: 1.8;
        stroke-linecap: round;
        stroke-linejoin: round;
        marker-end: url(#arrow);
      }
      .line-label {
        fill: #61b3ff;
        font-family: "SF Pro Text", "Inter", "Segoe UI", sans-serif;
        font-size: 11px;
        font-weight: 700;
        paint-order: stroke;
        stroke: rgba(10, 18, 34, 0.92);
        stroke-width: 4px;
        stroke-linejoin: round;
      }
    </style>
    <marker id="arrow" viewBox="0 0 10 10" refX="8" refY="5" markerWidth="7" markerHeight="7" orient="auto-start-reverse">
      <path d="M1.5 1.5L8 5L1.5 8.5" fill="none" stroke="#378add" stroke-width="1.5" stroke-linecap="round" stroke-linejoin="round"/>
    </marker>
  </defs>

  <rect class="lane-master" x="0" y="54" width="450" height="1066"/>
  <rect class="lane-handler" x="450" y="54" width="450" height="1066"/>
  <rect class="lane-system" x="900" y="54" width="450" height="1066"/>
  <rect class="lane-peer" x="1350" y="54" width="450" height="1066"/>

  <rect class="outer-border" x="0.6" y="0.6" width="1798.8" height="1118.8"/>
  <line class="divider" x1="450" y1="0" x2="450" y2="1120"/>
  <line class="divider" x1="900" y1="0" x2="900" y2="1120"/>
  <line class="divider" x1="1350" y1="0" x2="1350" y2="1120"/>

  <rect class="lane-head" x="0" y="0" width="450" height="54"/>
  <rect class="lane-head" x="450" y="0" width="450" height="54"/>
  <rect class="lane-head" x="900" y="0" width="450" height="54"/>
  <rect class="lane-head" x="1350" y="0" width="450" height="54"/>

  <text class="lane-title" x="225" y="27">Master</text>
  <text class="lane-title" x="675" y="27">Người phụ trách</text>
  <text class="lane-title" x="1125" y="27">Hệ thống PLS Buddy+</text>
  <text class="lane-title" x="1575" y="27">Handler khác</text>

  <ellipse class="start-end" cx="225" cy="102" rx="96" ry="28"/>
  <text class="text-dark" x="225" y="107">Bắt đầu</text>

  <rect class="task" x="65" y="160" width="320" height="72" rx="8"/>
  <text class="text-light" x="225" y="190">
    <tspan x="225" dy="0">Gán quyền quản lý</tspan>
    <tspan x="225" dy="16">vị trí tuyển dụng cho Handler</tspan>
  </text>

  <rect class="task" x="515" y="160" width="320" height="82" rx="8"/>
  <text class="text-light" x="675" y="192">
    <tspan x="675" dy="0">Vào mục K.Tra đầu vào</tspan>
    <tspan x="675" dy="16">và mở chế độ Thiết lập</tspan>
  </text>

  <rect class="task" x="965" y="160" width="320" height="82" rx="8"/>
  <text class="text-light" x="1125" y="192">
    <tspan x="1125" dy="0">Hiển thị danh sách bài kiểm tra</tspan>
    <tspan x="1125" dy="16">kèm mode Xem đáp án mẫu</tspan>
  </text>

  <rect class="task" x="515" y="332" width="320" height="82" rx="8"/>
  <text class="text-light" x="675" y="364">
    <tspan x="675" dy="0">Chọn / tạo bài kiểm tra</tspan>
    <tspan x="675" dy="16">trên vị trí đang quản lý</tspan>
  </text>

  <rect class="task" x="965" y="324" width="320" height="82" rx="8"/>
  <text class="text-light" x="1125" y="356">
    <tspan x="1125" dy="0">Tải danh sách bài kiểm tra</tspan>
    <tspan x="1125" dy="16">và tiêu đề số lượng câu hỏi</tspan>
  </text>

  <polygon class="task" points="1125,470 1235,540 1125,610 1015,540" fill="#f5a623" stroke="#d97706"/>
  <text class="text-dark" x="1125" y="536">
    <tspan x="1125" dy="0">Có bài kiểm tra</tspan>
    <tspan x="1125" dy="16">đã thiết lập?</tspan>
  </text>

  <rect class="result-error" x="1385" y="470" width="380" height="120" rx="8"/>
  <text class="text-light" x="1575" y="504">
    <tspan x="1575" dy="0">Chưa có bài kiểm tra</tspan>
    <tspan class="subtext" x="1575" dy="18">Hiển thị nút Thêm bài kiểm tra mới</tspan>
    <tspan class="meta-text" x="1575" dy="18">Người phụ trách tạo bài kiểm tra đầu tiên</tspan>
  </text>

  <rect class="task" x="515" y="646" width="320" height="82" rx="8"/>
  <text class="text-light" x="675" y="678">
    <tspan x="675" dy="0">Chọn loại câu hỏi</tspan>
    <tspan x="675" dy="16">Trắc nghiệm / Hộp kiểm / Dropdown / Văn bản</tspan>
  </text>

  <rect class="task" x="965" y="646" width="320" height="92" rx="8"/>
  <text class="text-light" x="1125" y="678">
    <tspan x="1125" dy="0">Auto-save từng câu hỏi</tspan>
    <tspan x="1125" dy="16">cập nhật tiêu đề và số lượng câu hỏi</tspan>
    <tspan class="subtext" x="1125" dy="16">Không cần nhấn nút Lưu tổng</tspan>
  </text>

  <rect class="result-ok" x="1385" y="646" width="380" height="112" rx="8"/>
  <text class="text-light" x="1575" y="678">
    <tspan x="1575" dy="0">Cấu hình được đồng bộ</tspan>
    <tspan class="subtext" x="1575" dy="18">Handler khác cùng vị trí thấy ngay thay đổi</tspan>
    <tspan class="meta-text" x="1575" dy="18">Bật / tắt hoặc xóa bài kiểm tra cũng đồng bộ</tspan>
  </text>

  <ellipse class="start-end" cx="1575" cy="940" rx="96" ry="28"/>
  <text class="text-dark" x="1575" y="945">Kết thúc</text>

  <line class="line" x1="225" y1="130" x2="225" y2="160"/>
  <line class="line" x1="385" y1="196" x2="515" y2="196"/>
  <line class="line" x1="835" y1="201" x2="965" y2="201"/>
  <path class="line" d="M1125 242 V286 H675 V332"/>
  <line class="line" x1="835" y1="373" x2="965" y2="373"/>
  <line class="line" x1="1125" y1="406" x2="1125" y2="470"/>
  <line class="line" x1="1235" y1="540" x2="1385" y2="540"/>
  <path class="line" d="M1015 540 H920 V687 H835"/>
  <line class="line" x1="835" y1="687" x2="965" y2="687"/>
  <line class="line" x1="1285" y1="687" x2="1385" y2="687"/>
  <line class="line" x1="1575" y1="758" x2="1575" y2="912"/>

  <text class="line-label" x="402" y="180">Phân quyền</text>
  <text class="line-label" x="1246" y="525">Không</text>
  <text class="line-label" x="1128" y="632">Có</text>
  <text class="line-label" x="1338" y="668">Đồng bộ</text>
</svg>
