<svg width="1800" height="1160" viewBox="0 0 1800 1160" preserveAspectRatio="xMidYMid meet" xmlns="http://www.w3.org/2000/svg" role="img" aria-label="Swimlane chart xem danh sách vị trí tuyển dụng">
  <defs>
    <style>
      .outer-border { fill: none; stroke: #b5d4f4; stroke-width: 1.2; }
      .divider { stroke: #b5d4f4; stroke-width: 1; }
      .lane-head { fill: #185fa5; }
      .lane-title {
        fill: #e8f2fb;
        font-family: "SF Pro Text", "Inter", "Segoe UI", sans-serif;
        font-size: 14px;
        font-weight: 700;
        text-anchor: middle;
        dominant-baseline: middle;
      }
      .lane-master { fill: #378add; opacity: 0.06; }
      .lane-handler { fill: #378add; opacity: 0.08; }
      .lane-system { fill: #378add; opacity: 0.11; }
      .lane-result { fill: #6b7280; opacity: 0.08; }
      .task { fill: #378add; stroke: #185fa5; stroke-width: 1; }
      .result-ok { fill: #1d9e75; stroke: #0f6e56; stroke-width: 1; }
      .result-empty { fill: #e24b4a; stroke: #a32d2d; stroke-width: 1; }
      .start-end { fill: #5dcaa5; stroke: #0f6e56; stroke-width: 1.2; }
      .decision { fill: #ef9f27; stroke: #854f0b; stroke-width: 1; }
      .text-light {
        fill: #eef6ff;
        font-family: "SF Pro Text", "Inter", "Segoe UI", sans-serif;
        font-size: 12px;
        font-weight: 600;
        text-anchor: middle;
      }
      .text-dark {
        fill: #07342c;
        font-family: "SF Pro Text", "Inter", "Segoe UI", sans-serif;
        font-size: 12px;
        font-weight: 700;
        text-anchor: middle;
      }
      .decision-text {
        fill: #4e2c04;
        font-family: "SF Pro Text", "Inter", "Segoe UI", sans-serif;
        font-size: 12px;
        font-weight: 700;
        text-anchor: middle;
      }
      .subtext {
        fill: #d8eeff;
        font-family: "SF Pro Text", "Inter", "Segoe UI", sans-serif;
        font-size: 11px;
        font-weight: 500;
        text-anchor: middle;
      }
      .meta-text {
        fill: #d6e6f6;
        font-family: "SF Pro Text", "Inter", "Segoe UI", sans-serif;
        font-size: 10px;
        font-weight: 600;
        text-anchor: middle;
      }
      .line {
        fill: none;
        stroke: #378add;
        stroke-width: 1.8;
        stroke-linecap: round;
        stroke-linejoin: round;
        marker-end: url(#arrow);
      }
      .line-label {
        fill: #61b3ff;
        font-family: "SF Pro Text", "Inter", "Segoe UI", sans-serif;
        font-size: 11px;
        font-weight: 700;
        paint-order: stroke;
        stroke: rgba(10, 18, 34, 0.92);
        stroke-width: 4px;
        stroke-linejoin: round;
      }
    </style>
    <marker id="arrow" viewBox="0 0 10 10" refX="8" refY="5" markerWidth="7" markerHeight="7" orient="auto-start-reverse">
      <path d="M1.5 1.5L8 5L1.5 8.5" fill="none" stroke="#378add" stroke-width="1.5" stroke-linecap="round" stroke-linejoin="round"/>
    </marker>
  </defs>

  <rect class="lane-master" x="0" y="54" width="450" height="1106"/>
  <rect class="lane-handler" x="450" y="54" width="450" height="1106"/>
  <rect class="lane-system" x="900" y="54" width="450" height="1106"/>
  <rect class="lane-result" x="1350" y="54" width="450" height="1106"/>

  <rect class="outer-border" x="0.6" y="0.6" width="1798.8" height="1158.8"/>
  <line class="divider" x1="450" y1="0" x2="450" y2="1160"/>
  <line class="divider" x1="900" y1="0" x2="900" y2="1160"/>
  <line class="divider" x1="1350" y1="0" x2="1350" y2="1160"/>

  <rect class="lane-head" x="0" y="0" width="450" height="54"/>
  <rect class="lane-head" x="450" y="0" width="450" height="54"/>
  <rect class="lane-head" x="900" y="0" width="450" height="54"/>
  <rect class="lane-head" x="1350" y="0" width="450" height="54"/>

  <text class="lane-title" x="225" y="27">Master</text>
  <text class="lane-title" x="675" y="27">Người phụ trách</text>
  <text class="lane-title" x="1125" y="27">Hệ thống PLS Buddy+</text>
  <text class="lane-title" x="1575" y="27">Danh sách vị trí / Kết quả</text>

  <ellipse class="start-end" cx="225" cy="102" rx="96" ry="28"/>
  <text class="text-dark" x="225" y="107">Bắt đầu</text>

  <rect class="task" x="65" y="160" width="320" height="72" rx="8"/>
  <text class="text-light" x="225" y="190">
    <tspan x="225" dy="0">Gán quyền xem và quản lý</tspan>
    <tspan x="225" dy="16">vị trí tuyển dụng cho Handler</tspan>
  </text>

  <rect class="task" x="515" y="160" width="320" height="72" rx="8"/>
  <text class="text-light" x="675" y="190">
    <tspan x="675" dy="0">Chọn menu</tspan>
    <tspan x="675" dy="16">Quản lý vị trí</tspan>
  </text>

  <rect class="task" x="965" y="160" width="320" height="82" rx="8"/>
  <text class="text-light" x="1125" y="192">
    <tspan x="1125" dy="0">Tải danh sách vị trí tuyển dụng</tspan>
    <tspan x="1125" dy="16">theo quyền Master đã gán</tspan>
  </text>

  <polygon class="decision" points="1125,312 1235,382 1125,452 1015,382"/>
  <text class="decision-text" x="1125" y="378">
    <tspan x="1125" dy="0">Có vị trí được phép</tspan>
    <tspan x="1125" dy="16">truy cập?</tspan>
  </text>

  <rect class="result-empty" x="1400" y="336" width="350" height="92" rx="8"/>
  <text class="text-light" x="1575" y="366">
    <tspan x="1575" dy="0">Bảng này hiện đang trống!</tspan>
    <tspan class="subtext" x="1575" dy="18">Chưa có vị trí được Master phê duyệt quyền xem</tspan>
  </text>

  <rect class="result-ok" x="1380" y="652" width="390" height="238" rx="8"/>
  <text class="text-light" x="1575" y="682">
    <tspan x="1575" dy="0">Hiển thị bảng Danh sách vị trí ứng tuyển</tspan>
    <tspan class="subtext" x="1575" dy="18">Tên và vai trò · Ứng viên · Chờ phỏng vấn</tspan>
    <tspan class="subtext" x="1575" dy="16">Đang đào tạo · Trạng thái</tspan>
    <tspan class="meta-text" x="1575" dy="18">Các cột đếm không có dữ liệu vẫn hiển thị 0</tspan>
    <tspan class="meta-text" x="1575" dy="14">Chỉ các vị trí được phân quyền mới xuất hiện</tspan>
    <tspan class="meta-text" x="1575" dy="14">Cho phép toggle trạng thái và xóa item khi hover</tspan>
  </text>

  <ellipse class="start-end" cx="1575" cy="1036" rx="96" ry="28"/>
  <text class="text-dark" x="1575" y="1041">Kết thúc</text>

  <line class="line" x1="225" y1="130" x2="225" y2="160"/>
  <line class="line" x1="385" y1="196" x2="515" y2="196"/>
  <line class="line" x1="835" y1="196" x2="965" y2="196"/>
  <line class="line" x1="1125" y1="242" x2="1125" y2="312"/>
  <line class="line" x1="1235" y1="382" x2="1400" y2="382"/>
  <path class="line" d="M1125 452 V772 H1380"/>
  <line class="line" x1="1575" y1="890" x2="1575" y2="1008"/>

  <text class="line-label" x="450" y="178" text-anchor="middle">Phân quyền</text>
  <text class="line-label" x="1298" y="368">Không</text>
  <text class="line-label" x="1143" y="486">Có</text>
</svg>
