<?xml version="1.0" encoding="UTF-8"?>
<svg xmlns="http://www.w3.org/2000/svg" id="Layer_1" data-name="Layer 1" viewBox="0 0 24 24">
  <path d="M21.5,8.5h-1v-1c0-2.206-1.794-4-4-4h-.5v-1c0-1.378-1.121-2.5-2.5-2.5h-2c-1.379,0-2.5,1.122-2.5,2.5v1h-2v-1c0-1.378-1.121-2.5-2.5-2.5H2.5C1.121,0,0,1.122,0,2.5v3c0,1.378,1.121,2.5,2.5,2.5h2c1.379,0,2.5-1.122,2.5-2.5v-1h2v1c0,1.378,1.121,2.5,2.5,2.5h2c1.379,0,2.5-1.122,2.5-2.5v-1h.5c1.654,0,3,1.346,3,3v1h-1c-1.379,0-2.5,1.122-2.5,2.5v2c0,1.379,1.121,2.5,2.5,2.5h1v1c0,1.654-1.346,3-3,3h-.5v-1c0-1.379-1.121-2.5-2.5-2.5h-2c-1.379,0-2.5,1.121-2.5,2.5v1h-2v-1c0-1.379-1.121-2.5-2.5-2.5H2.5c-1.379,0-2.5,1.121-2.5,2.5v3c0,1.379,1.121,2.5,2.5,2.5h2c1.379,0,2.5-1.121,2.5-2.5v-1h2v1c0,1.379,1.121,2.5,2.5,2.5h2c1.379,0,2.5-1.121,2.5-2.5v-1h.5c2.206,0,4-1.794,4-4v-1h1c1.379,0,2.5-1.121,2.5-2.5v-2c0-1.378-1.121-2.5-2.5-2.5ZM6,5.5c0,.827-.673,1.5-1.5,1.5H2.5c-.827,0-1.5-.673-1.5-1.5V2.5c0-.827,.673-1.5,1.5-1.5h2c.827,0,1.5,.673,1.5,1.5v3Zm9,0c0,.827-.673,1.5-1.5,1.5h-2c-.827,0-1.5-.673-1.5-1.5V2.5c0-.827,.673-1.5,1.5-1.5h2c.827,0,1.5,.673,1.5,1.5v3ZM6,21.5c0,.827-.673,1.5-1.5,1.5H2.5c-.827,0-1.5-.673-1.5-1.5v-3c0-.827,.673-1.5,1.5-1.5h2c.827,0,1.5,.673,1.5,1.5v3Zm9,0c0,.827-.673,1.5-1.5,1.5h-2c-.827,0-1.5-.673-1.5-1.5v-3c0-.827,.673-1.5,1.5-1.5h2c.827,0,1.5,.673,1.5,1.5v3Zm8-8.5c0,.827-.673,1.5-1.5,1.5h-3c-.827,0-1.5-.673-1.5-1.5v-2c0-.827,.673-1.5,1.5-1.5h3c.827,0,1.5,.673,1.5,1.5v2Z"/>
</svg>
