<svg width="1800" height="1140" viewBox="0 0 1800 1140" preserveAspectRatio="xMidYMid meet" xmlns="http://www.w3.org/2000/svg" role="img" aria-label="Swimlane chart hiển thị bảng danh sách ứng viên">
  <defs>
    <style>
      .outer-border { fill: none; stroke: #b5d4f4; stroke-width: 1.2; }
      .divider { stroke: #b5d4f4; stroke-width: 1; }
      .lane-head { fill: #185fa5; }
      .lane-title {
        fill: #e8f2fb;
        font-family: "SF Pro Text", "Inter", "Segoe UI", sans-serif;
        font-size: 14px;
        font-weight: 700;
        text-anchor: middle;
        dominant-baseline: middle;
      }
      .lane-master { fill: #378add; opacity: 0.06; }
      .lane-handler { fill: #378add; opacity: 0.08; }
      .lane-system { fill: #378add; opacity: 0.11; }
      .lane-result { fill: #6b7280; opacity: 0.08; }
      .task { fill: #378add; stroke: #185fa5; stroke-width: 1; }
      .result-ok { fill: #1d9e75; stroke: #0f6e56; stroke-width: 1; }
      .result-empty { fill: #e24b4a; stroke: #a32d2d; stroke-width: 1; }
      .start-end { fill: #5dcaa5; stroke: #0f6e56; stroke-width: 1.2; }
      .decision { fill: #ef9f27; stroke: #854f0b; stroke-width: 1; }
      .text-light {
        fill: #eef6ff;
        font-family: "SF Pro Text", "Inter", "Segoe UI", sans-serif;
        font-size: 12px;
        font-weight: 600;
        text-anchor: middle;
      }
      .text-dark {
        fill: #07342c;
        font-family: "SF Pro Text", "Inter", "Segoe UI", sans-serif;
        font-size: 12px;
        font-weight: 700;
        text-anchor: middle;
      }
      .decision-text {
        fill: #4e2c04;
        font-family: "SF Pro Text", "Inter", "Segoe UI", sans-serif;
        font-size: 12px;
        font-weight: 700;
        text-anchor: middle;
      }
      .subtext {
        fill: #d8eeff;
        font-family: "SF Pro Text", "Inter", "Segoe UI", sans-serif;
        font-size: 11px;
        font-weight: 500;
        text-anchor: middle;
      }
      .meta-text {
        fill: #d6e6f6;
        font-family: "SF Pro Text", "Inter", "Segoe UI", sans-serif;
        font-size: 10px;
        font-weight: 600;
        text-anchor: middle;
      }
      .line {
        fill: none;
        stroke: #378add;
        stroke-width: 1.8;
        stroke-linecap: round;
        stroke-linejoin: round;
        marker-end: url(#arrow);
      }
      .line-label {
        fill: #61b3ff;
        font-family: "SF Pro Text", "Inter", "Segoe UI", sans-serif;
        font-size: 11px;
        font-weight: 700;
        paint-order: stroke;
        stroke: rgba(10, 18, 34, 0.92);
        stroke-width: 4px;
        stroke-linejoin: round;
      }
    </style>
    <marker id="arrow" viewBox="0 0 10 10" refX="8" refY="5" markerWidth="7" markerHeight="7" orient="auto-start-reverse">
      <path d="M1.5 1.5L8 5L1.5 8.5" fill="none" stroke="#378add" stroke-width="1.5" stroke-linecap="round" stroke-linejoin="round"/>
    </marker>
  </defs>

  <rect class="lane-master" x="0" y="54" width="450" height="1086"/>
  <rect class="lane-handler" x="450" y="54" width="450" height="1086"/>
  <rect class="lane-system" x="900" y="54" width="450" height="1086"/>
  <rect class="lane-result" x="1350" y="54" width="450" height="1086"/>

  <rect class="outer-border" x="0.6" y="0.6" width="1798.8" height="1138.8"/>
  <line class="divider" x1="450" y1="0" x2="450" y2="1140"/>
  <line class="divider" x1="900" y1="0" x2="900" y2="1140"/>
  <line class="divider" x1="1350" y1="0" x2="1350" y2="1140"/>

  <rect class="lane-head" x="0" y="0" width="450" height="54"/>
  <rect class="lane-head" x="450" y="0" width="450" height="54"/>
  <rect class="lane-head" x="900" y="0" width="450" height="54"/>
  <rect class="lane-head" x="1350" y="0" width="450" height="54"/>

  <text class="lane-title" x="225" y="27">Master</text>
  <text class="lane-title" x="675" y="27">Người phụ trách</text>
  <text class="lane-title" x="1125" y="27">Hệ thống PLS Buddy+</text>
  <text class="lane-title" x="1575" y="27">Màn hình / Kết quả</text>

  <ellipse class="start-end" cx="225" cy="100" rx="96" ry="28"/>
  <text class="text-dark" x="225" y="105">Bắt đầu</text>

  <rect class="task" x="65" y="160" width="320" height="64" rx="8"/>
  <text class="text-light" x="225" y="190">
    <tspan x="225" dy="0">Gán vị trí tuyển dụng</tspan>
    <tspan x="225" dy="16">cho Handler</tspan>
  </text>

  <rect class="task" x="515" y="160" width="320" height="64" rx="8"/>
  <text class="text-light" x="675" y="190">
    <tspan x="675" dy="0">Mở menu</tspan>
    <tspan x="675" dy="16">Ứng Viên</tspan>
  </text>

  <rect class="task" x="965" y="160" width="320" height="74" rx="8"/>
  <text class="text-light" x="1125" y="190">
    <tspan x="1125" dy="0">Kiểm tra vị trí tuyển dụng</tspan>
    <tspan x="1125" dy="16">đã được Master gán</tspan>
  </text>

  <polygon class="decision" points="1125,290 1235,360 1125,430 1015,360"/>
  <text class="decision-text" x="1125" y="356">
    <tspan x="1125" dy="0">Có vị trí</tspan>
    <tspan x="1125" dy="16">được gán?</tspan>
  </text>

  <rect class="result-empty" x="1405" y="314" width="340" height="92" rx="8"/>
  <text class="text-light" x="1575" y="344">
    <tspan x="1575" dy="0">Bảng dữ liệu trống!</tspan>
    <tspan class="subtext" x="1575" dy="18">Chưa được Master gán vị trí tuyển dụng</tspan>
  </text>

  <rect class="task" x="965" y="520" width="320" height="74" rx="8"/>
  <text class="text-light" x="1125" y="550">
    <tspan x="1125" dy="0">Query danh sách ứng viên</tspan>
    <tspan x="1125" dy="16">theo vị trí được phân quyền</tspan>
  </text>

  <polygon class="decision" points="1125,650 1235,720 1125,790 1015,720"/>
  <text class="decision-text" x="1125" y="716">
    <tspan x="1125" dy="0">Có dữ liệu</tspan>
    <tspan x="1125" dy="16">ứng viên?</tspan>
  </text>

  <rect class="result-empty" x="1405" y="674" width="340" height="92" rx="8"/>
  <text class="text-light" x="1575" y="704">
    <tspan x="1575" dy="0">Bảng dữ liệu trống!</tspan>
    <tspan class="subtext" x="1575" dy="18">Không có ứng viên hoặc search / filter không khớp</tspan>
  </text>

  <rect class="result-ok" x="1385" y="870" width="380" height="160" rx="8"/>
  <text class="text-light" x="1575" y="900">
    <tspan x="1575" dy="0">Hiển thị bảng Danh sách ứng viên</tspan>
    <tspan class="subtext" x="1575" dy="18">Họ tên · Vị trí PV · Loại HĐ · Người phụ trách</tspan>
    <tspan class="subtext" x="1575" dy="16">Ngày PV · Giờ PV · Trạng thái · Đánh giá</tspan>
    <tspan class="subtext" x="1575" dy="16">Ngày gửi CV</tspan>
    <tspan class="meta-text" x="1575" dy="18">Phân trang khả dụng · Chỉ xem, không chỉnh sửa</tspan>
    <tspan class="meta-text" x="1575" dy="14">Không lọc và ô tìm kiếm trống: hiện lại dữ liệu ban đầu</tspan>
  </text>

  <ellipse class="start-end" cx="1575" cy="1090" rx="96" ry="28"/>
  <text class="text-dark" x="1575" y="1095">Kết thúc</text>

  <line class="line" x1="225" y1="128" x2="225" y2="160"/>
  <line class="line" x1="385" y1="192" x2="515" y2="192"/>
  <line class="line" x1="835" y1="192" x2="965" y2="192"/>
  <line class="line" x1="1125" y1="234" x2="1125" y2="290"/>
  <line class="line" x1="1235" y1="360" x2="1405" y2="360"/>
  <line class="line" x1="1125" y1="430" x2="1125" y2="520"/>
  <line class="line" x1="1125" y1="594" x2="1125" y2="650"/>
  <line class="line" x1="1235" y1="720" x2="1405" y2="720"/>
  <path class="line" d="M1125 790 V950 H1385"/>
  <line class="line" x1="1575" y1="1030" x2="1575" y2="1062"/>

  <text class="line-label" x="404" y="174">Phân quyền vị trí</text>
  <text class="line-label" x="1310" y="346">Không</text>
  <text class="line-label" x="1143" y="470">Có</text>
  <text class="line-label" x="1310" y="706">Không</text>
  <text class="line-label" x="1143" y="828">Có</text>
</svg>
