<svg width="1200" height="1200" viewBox="0 0 1200 1200" fill="none" xmlns="http://www.w3.org/2000/svg">
<path d="M942.922 593.59H835.797C835.82 593.495 835.832 593.4 835.855 593.305H834.424C811.07 593.305 791.963 573.823 791.963 550.011V545.23C791.963 521.417 811.07 501.936 834.424 501.936H938.546C958.014 501.936 974.491 515.497 979.448 533.804C979.588 534.302 979.832 536.533 979.89 537.672C980.17 542.453 979.634 552.467 971.117 557.332C969.371 557.83 969.546 558.696 970.267 558.743C1003.83 565.388 1035.79 582.283 1056.8 609.085V540.341C1056.8 540.341 1056.56 533.282 1056.45 532.273C1049.59 473.544 994.087 443.301 942.922 443.301H830.072C775.439 443.301 715.779 474.813 715.779 544.589V550.747C715.779 616.121 775.439 652.035 830.072 652.035H838.59C838.729 652.106 838.869 652.165 838.997 652.237C839.846 652.189 840.684 652.106 841.557 652.106H931.436C959.003 652.106 981.357 674.898 981.357 703.005V708.178C980.426 729.143 971.477 758.603 934.892 762.364C857.79 768.913 822.066 730.875 762.325 716.08C813.746 752.623 847.98 808.232 946.692 817.427C1002.99 814.71 1057.2 783.103 1057.2 716.305V694.902C1057.21 628.045 997.566 593.59 942.922 593.59Z" fill="#C81D20"/>
<path d="M1138.37 411.942L887.283 298.279C885.864 297.639 884.246 297.639 882.838 298.279L634.646 410.412C632.458 411.397 632.47 414.576 634.681 415.537L728.749 456.446C755.92 431.092 794.262 419.073 830.079 419.073H942.929C979.292 419.073 1017.44 432.231 1044.39 457.846L1114.82 427.26V502.54C1109.98 503.834 1106.32 508.176 1106.02 513.491L1102.64 574.238C1101.85 583.777 1109.22 591.976 1118.61 591.976H1118.81C1128.06 591.976 1135.35 583.896 1134.56 574.499L1131.25 515.081C1130.94 509.446 1127.31 504.783 1122.37 502.968V423.997L1138.33 417.068C1140.54 416.107 1140.56 412.927 1138.37 411.942Z" fill="#C81D20"/>
<path d="M404.611 569.137C404.611 595.144 383.934 616.216 358.438 616.216H243.308L242.295 616.299C231.264 616.714 221.862 627.7 217.557 639.577C217.056 640.953 215.055 640.574 215.055 639.102V617.343V537.043C215.055 518.902 229.472 504.202 247.264 504.202H358.427C383.934 504.202 404.6 525.285 404.6 551.292V569.137H404.611ZM362.72 443.301H155.825C147.087 443.301 140 450.526 140 459.437V817.582H198.659C207.398 817.582 214.485 810.356 214.485 801.434V705.734C214.485 689.918 227.052 677.105 242.563 677.105H362.72C419.89 677.105 481.202 642.638 481.202 571.557V548.848C481.202 475.05 419.902 443.301 362.72 443.301Z" fill="#C81D20"/>
<path d="M274.046 562.324C274.046 568.268 269.322 573.085 263.492 573.085C257.662 573.085 252.938 568.268 252.938 562.324C252.938 556.38 257.662 551.562 263.492 551.562C269.322 551.562 274.046 556.38 274.046 562.324Z" fill="#C81D20"/>
<path d="M313.819 562.324C313.819 568.268 309.095 573.085 303.265 573.085C297.435 573.085 292.711 568.268 292.711 562.324C292.711 556.38 297.435 551.562 303.265 551.562C309.095 551.562 313.819 556.38 313.819 562.324Z" fill="#C81D20"/>
<path d="M353.589 562.324C353.589 568.268 348.865 573.085 343.035 573.085C337.205 573.085 332.48 568.268 332.48 562.324C332.48 556.38 337.205 551.562 343.035 551.562C348.865 551.562 353.589 556.38 353.589 562.324Z" fill="#C81D20"/>
<path d="M533.119 410.517C533.119 411.549 533.107 412.582 533.072 413.602C540.415 411.585 548.141 410.517 556.101 410.517C564.072 410.517 571.787 411.585 579.141 413.602C579.106 412.582 579.094 411.549 579.094 410.517C579.094 388.437 586.181 368.042 598.166 351.586C576.022 330.882 561.349 301.992 558.765 269.625V342.521C562.803 343.696 565.759 347.481 565.759 351.977C565.759 357.411 561.442 361.813 556.112 361.813C550.783 361.813 546.466 357.411 546.466 351.977C546.466 347.481 549.421 343.696 553.459 342.521V269.625C550.864 301.992 536.203 330.882 514.047 351.586C526.032 368.042 533.119 388.437 533.119 410.517Z" fill="#C81D20"/>
<path d="M556.095 428.79C565.904 428.79 575.26 430.748 583.813 434.296C582.347 430.096 581.195 425.741 580.403 421.268C572.793 418.551 564.613 417.08 556.095 417.08C547.577 417.08 539.397 418.563 531.786 421.268C530.995 425.753 529.843 430.096 528.377 434.296C536.941 430.748 546.297 428.79 556.095 428.79Z" fill="#C81D20"/>
<path d="M843.116 795.938C814.875 781.629 790.089 760.356 764.408 742.749C739.866 725.581 712.893 714.357 683.29 713.503C675.447 713.171 667.535 713.467 659.61 714.191C636.617 718.415 614.671 726.352 594.621 739.866V470.065C594.621 454.119 583.183 440.605 567.718 438.196C564.006 437.627 560.119 437.318 556.116 437.318C552.125 437.318 548.25 437.627 544.538 438.196C529.073 440.593 517.635 454.107 517.635 470.053V817.567H610.191C610.191 817.567 664.637 777.75 722.854 779.945C773.845 781.25 822.799 812.489 908.326 817.164C885.682 813.533 863.561 806.711 843.116 795.938Z" fill="#C81D20"/>
<path d="M903.061 517.158H868.85C864.125 517.158 860.285 521.062 860.285 525.891C860.285 530.708 864.114 534.623 868.85 534.623H903.061C907.785 534.623 911.625 530.719 911.625 525.891C911.625 521.062 907.797 517.158 903.061 517.158Z" fill="#C81D20"/>
<path d="M140 929.063V868.165H162.536C169.335 868.165 174.654 869.941 178.492 873.492C182.33 877.044 184.25 882.317 184.25 889.311V890.049C184.25 897.316 182.413 902.808 178.739 906.523C175.065 910.184 169.966 912.015 163.441 912.015H154.147V929.063H140ZM161.138 900.294C164.154 900.294 166.402 899.556 167.882 898.081C169.363 896.551 170.103 893.874 170.103 890.049V889.639C170.103 886.251 169.39 883.792 167.964 882.262C166.539 880.678 164.346 879.886 161.385 879.886H154.147V900.294H161.138Z" fill="#C81D20"/>
<path d="M212.801 930.374C204.851 930.374 198.874 928.134 194.871 923.653C190.923 919.173 188.949 912.534 188.949 903.736V893.491C188.949 884.749 190.923 878.137 194.871 873.656C198.874 869.176 204.823 866.936 212.719 866.936C220.615 866.936 226.564 869.176 230.567 873.656C234.57 878.137 236.571 884.749 236.571 893.491V903.736C236.571 912.534 234.57 919.173 230.567 923.653C226.619 928.134 220.697 930.374 212.801 930.374ZM212.801 918.326C219.162 918.326 222.342 913.872 222.342 904.966V892.344C222.342 883.437 219.162 878.984 212.801 878.984C206.386 878.984 203.178 883.437 203.178 892.344V904.966C203.178 913.872 206.386 918.326 212.801 918.326Z" fill="#C81D20"/>
<path d="M245.3 929.063V868.165H268.577C282.559 868.165 289.55 874.148 289.55 886.115V886.442C289.55 890.377 288.645 893.655 286.836 896.278C285.026 898.846 282.531 900.513 279.351 901.278V901.36C284.615 902.671 287.658 907.288 288.481 915.211L289.057 921.03C289.386 924.582 290.016 927.259 290.948 929.063H276.719C276.116 927.096 275.54 923.872 274.992 919.391L274.252 914.146C273.978 911.905 273.155 910.239 271.784 909.146C270.414 907.998 268.385 907.425 265.698 907.425H259.447V929.063H245.3ZM267.096 896.442C272.634 896.442 275.403 893.573 275.403 887.836V887.262C275.403 882.18 272.854 879.64 267.754 879.64H259.447V896.442H267.096Z" fill="#C81D20"/>
<path d="M319.467 930.374C311.517 930.374 305.54 928.134 301.537 923.653C297.589 919.173 295.615 912.534 295.615 903.736V893.491C295.615 884.749 297.589 878.137 301.537 873.656C305.54 869.176 311.489 866.936 319.385 866.936C327.281 866.936 333.23 869.176 337.233 873.656C341.236 878.137 343.237 884.749 343.237 893.491V903.736C343.237 912.534 341.236 919.173 337.233 923.653C333.285 928.134 327.363 930.374 319.467 930.374ZM319.467 918.326C325.828 918.326 329.008 913.872 329.008 904.966V892.344C329.008 883.437 325.828 878.984 319.467 878.984C313.052 878.984 309.844 883.437 309.844 892.344V904.966C309.844 913.872 313.052 918.326 319.467 918.326Z" fill="#C81D20"/>
<path d="M411.362 929.063H375.42V868.165H389.567V917.26H411.362V929.063Z" fill="#C81D20"/>
<path d="M466.924 929.063H452.201L449.323 917.342H431.063L428.185 929.063H413.462L430.817 868.165H449.569L466.924 929.063ZM438.877 885.705L433.778 906.277H446.608L441.509 885.705L440.275 880.131H440.111L438.877 885.705Z" fill="#C81D20"/>
<path d="M486.665 929.063H472.929V868.165H488.063L504.677 901.441L506.98 906.113H507.062L506.98 900.704V868.165H520.715V929.063H505.582L488.968 895.868L486.747 891.278H486.665V929.063Z" fill="#C81D20"/>
<path d="M553.198 930.374C537.352 930.374 529.429 921.495 529.429 903.736V893.573C529.429 875.815 537.324 866.936 553.116 866.936C560.957 866.936 566.769 868.985 570.553 873.083C574.391 877.126 576.31 882.754 576.31 889.967V890.213H562.41V889.393C562.41 886.169 561.67 883.628 560.19 881.771C558.709 879.858 556.351 878.902 553.116 878.902C550.1 878.902 547.743 879.995 546.043 882.18C544.398 884.311 543.575 887.563 543.575 891.934V905.294C543.575 914.255 546.783 918.735 553.198 918.735C556.324 918.735 558.709 917.916 560.354 916.277C561.999 914.583 562.904 911.905 563.068 908.244V907.589H553.198V896.77H576.475V903.491C576.475 912.452 574.638 919.173 570.964 923.653C567.29 928.134 561.368 930.374 553.198 930.374Z" fill="#C81D20"/>
<path d="M606.612 930.374C598.606 930.374 592.767 928.38 589.093 924.391C585.474 920.347 583.664 914.036 583.664 905.458V868.165H597.811V906.277C597.811 914.31 600.772 918.326 606.694 918.326C612.506 918.326 615.412 914.31 615.412 906.277V868.165H629.559V905.376C629.559 914.009 627.722 920.347 624.048 924.391C620.429 928.38 614.617 930.374 606.612 930.374Z" fill="#C81D20"/>
<path d="M685.557 929.063H670.834L667.955 917.342H649.696L646.818 929.063H632.095L649.45 868.165H668.202L685.557 929.063ZM657.51 885.705L652.41 906.277H665.241L660.142 885.705L658.908 880.131H658.744L657.51 885.705Z" fill="#C81D20"/>
<path d="M711.832 930.374C695.985 930.374 688.062 921.495 688.062 903.736V893.573C688.062 875.815 695.958 866.936 711.749 866.936C719.59 866.936 725.403 868.985 729.186 873.083C733.024 877.126 734.944 882.754 734.944 889.967V890.213H721.044V889.393C721.044 886.169 720.303 883.628 718.823 881.771C717.342 879.858 714.985 878.902 711.749 878.902C708.734 878.902 706.376 879.995 704.676 882.18C703.031 884.311 702.209 887.563 702.209 891.934V905.294C702.209 914.255 705.416 918.735 711.832 918.735C714.957 918.735 717.342 917.916 718.987 916.277C720.632 914.583 721.537 911.905 721.702 908.244V907.589H711.832V896.77H735.108V903.491C735.108 912.452 733.271 919.173 729.597 923.653C725.924 928.134 720.002 930.374 711.832 930.374Z" fill="#C81D20"/>
<path d="M781.612 929.063H743.449V868.165H781.119V879.804H757.596V892.59H778.405V903.654H757.596V917.342H781.612V929.063Z" fill="#C81D20"/>
<path d="M832.265 930.374C824.807 930.374 819.16 928.626 815.321 925.128C811.538 921.631 809.619 916.604 809.564 910.047H823.299C823.299 916.058 826.288 919.063 832.265 919.063C834.896 919.063 836.843 918.462 838.104 917.26C839.42 916.058 840.078 914.391 840.078 912.26C840.078 910.348 839.694 908.873 838.927 907.835C838.214 906.742 837.09 905.84 835.554 905.13C834.019 904.419 831.497 903.436 827.988 902.179C823.766 900.868 820.421 899.447 817.953 897.917C815.486 896.387 813.676 894.502 812.525 892.262C811.373 890.021 810.798 887.235 810.798 883.902C810.798 878.656 812.635 874.531 816.308 871.525C820.037 868.466 825.219 866.936 831.853 866.936C838.981 866.936 844.355 868.711 847.974 872.263C851.593 875.76 853.402 880.596 853.402 886.77H840.243C840.188 884.093 839.53 882.017 838.269 880.541C837.008 879.011 834.896 878.246 831.936 878.246C829.523 878.246 827.713 878.765 826.507 879.804C825.356 880.842 824.78 882.235 824.78 883.984V884.066C824.78 886.142 825.465 887.672 826.836 888.655C828.207 889.639 830.565 890.65 833.91 891.688C838.954 893.163 842.929 894.803 845.836 896.606C848.796 898.409 850.935 900.567 852.251 903.081C853.567 905.594 854.225 908.681 854.225 912.342C854.225 918.025 852.251 922.451 848.303 925.62C844.41 928.789 839.064 930.374 832.265 930.374Z" fill="#C81D20"/>
<path d="M862.002 929.063V868.165H884.539C891.338 868.165 896.656 869.941 900.495 873.492C904.333 877.044 906.252 882.317 906.252 889.311V890.049C906.252 897.316 904.415 902.808 900.741 906.523C897.068 910.184 891.968 912.015 885.443 912.015H876.149V929.063H862.002ZM883.14 900.294C886.156 900.294 888.404 899.556 889.885 898.081C891.365 896.551 892.105 893.874 892.105 890.049V889.639C892.105 886.251 891.393 883.792 889.967 882.262C888.541 880.678 886.348 879.886 883.387 879.886H876.149V900.294H883.14Z" fill="#C81D20"/>
<path d="M956.88 929.063H942.157L939.279 917.342H921.02L918.141 929.063H903.418L920.773 868.165H939.525L956.88 929.063ZM928.833 885.705L923.734 906.277H936.564L931.465 885.705L930.231 880.131H930.067L928.833 885.705Z" fill="#C81D20"/>
<path d="M982.908 930.374C975.122 930.374 969.255 928.161 965.307 923.735C961.359 919.255 959.385 912.588 959.385 903.736V893.573C959.385 875.815 967.254 866.936 982.99 866.936C990.831 866.936 996.671 869.039 1000.51 873.247C1004.35 877.454 1006.32 883.191 1006.43 890.459V891.442H992.367V890.295C992.257 886.688 991.489 883.902 990.064 881.935C988.693 879.967 986.363 878.984 983.073 878.984C976.767 878.984 973.614 883.41 973.614 892.262V904.966C973.614 909.446 974.409 912.807 975.999 915.047C977.644 917.233 979.975 918.326 982.99 918.326C989.077 918.326 992.202 914.61 992.367 907.179V905.867H1006.43V906.933C1006.32 914.255 1004.38 919.992 1000.59 924.145C996.808 928.298 990.914 930.374 982.908 930.374Z" fill="#C81D20"/>
<path d="M1052.86 929.063H1014.69V868.165H1052.36V879.804H1028.84V892.59H1049.65V903.654H1028.84V917.342H1052.86V929.063Z" fill="#C81D20"/>
</svg>
